<?xml version="1.0" encoding="iso-8859-1"?>
<!-- Generator: Adobe Illustrator 19.0.0, SVG Export Plug-In . SVG Version: 6.00 Build 0)  -->
<svg version="1.1" id="Capa_1" xmlns="http://www.w3.org/2000/svg" xmlns:xlink="http://www.w3.org/1999/xlink" x="0px" y="0px"
	 viewBox="0 0 512 512" style="enable-background:new 0 0 512 512;" xml:space="preserve">
<g>
	<g>
		<path d="M504.167,256.385c-4.625-1.25-9.531,0.698-11.99,4.813c-9.521,15.938-39.729,57.438-64.813,58.052
			c-6.198,0.656-12.031-2.5-17.479-8.104c40.479-35.24,60.115-77.833,59.958-129.896C469.313,2.073,268.698,0,266.667,0
			c-4.792,0-9,3.198-10.281,7.823s0.688,9.531,4.802,12c14.875,8.896,57.458,39.958,58.063,65.073
			c0.156,6.427-2.635,12.333-8.49,17.875c-35.125-40.427-77.563-60.104-129.427-60.104C2.073,42.667,0,264.427,0,266.667
			c0,4.948,3.406,9.25,8.219,10.385c4.76,1.073,9.771-1.188,11.99-5.615c14.313-28.625,45.594-74.563,68.615-75.99
			c2.042-0.125,7.115-0.417,13.521,5.677C62.052,236.25,42.458,278.74,42.5,330.677C42.677,509.927,243.302,512,245.333,512
			c4.792,0,9-3.198,10.281-7.823c1.271-4.615-0.688-9.521-4.792-11.99c-15.958-9.583-57.479-39.958-58.073-65.146
			c-0.156-6.427,2.635-12.323,8.49-17.865c35.125,40.396,77.677,60.083,129.771,60.104c0.021,0,0.042,0,0.073,0
			c93.656-0.01,138.01-55.625,158.708-102.292C511.75,317.5,512,268.719,512,266.667C512,261.865,508.792,257.667,504.167,256.385z
			 M256,170.667c5.896,0,10.667,4.771,10.667,10.667c0,5.896-4.771,10.667-10.667,10.667c-35.292,0-64,28.708-64,64
			c0,5.896-4.771,10.667-10.667,10.667c-5.896,0-10.667-4.771-10.667-10.667C170.667,208.948,208.948,170.667,256,170.667z
			 M298.667,256c0,23.531-19.135,42.667-42.667,42.667S213.333,279.531,213.333,256s19.135-42.667,42.667-42.667
			S298.667,232.469,298.667,256z M256,384c-70.583,0-128-57.417-128-128c0-5.896,4.771-10.667,10.667-10.667
			c5.896,0,10.667,4.771,10.667,10.667c0,58.813,47.854,106.667,106.667,106.667c5.896,0,10.667,4.771,10.667,10.667
			C266.667,379.229,261.896,384,256,384z M256,341.333c-5.896,0-10.667-4.771-10.667-10.667c0-5.896,4.771-10.667,10.667-10.667
			c35.292,0,64-28.708,64-64c0-5.896,4.771-10.667,10.667-10.667c5.896,0,10.667,4.771,10.667,10.667
			C341.333,303.052,303.052,341.333,256,341.333z M373.333,266.667c-5.896,0-10.667-4.771-10.667-10.667
			c0-58.813-47.854-106.667-106.667-106.667c-5.896,0-10.667-4.771-10.667-10.667c0-5.896,4.771-10.667,10.667-10.667
			c70.583,0,128,57.417,128,128C384,261.896,379.229,266.667,373.333,266.667z"/>
	</g>
</g>
<g>
</g>
<g>
</g>
<g>
</g>
<g>
</g>
<g>
</g>
<g>
</g>
<g>
</g>
<g>
</g>
<g>
</g>
<g>
</g>
<g>
</g>
<g>
</g>
<g>
</g>
<g>
</g>
<g>
</g>
</svg>
